<?xml version="1.0" encoding="utf-8"?>
<svg xmlns="http://www.w3.org/2000/svg" xml:space="preserve" width="267.683" height="118.04">
  <path fill="none" stroke="#000" stroke-width="10" d="m194.098 113.017 46.314-76.27"/>
  <ellipse cx="250.669" cy="20.193" stroke="#000" stroke-width="10" rx="5.884" ry="6.154"/>
  <path fill="none" stroke="#000" stroke-width="5" d="m246.113 27.473-8.167 14.25"/>
  <path fill="none" stroke="#000" stroke-width="6" d="M215.507 74.301s-17.177-13.195-36.138-15.626c0 0-17.501-4.032-25.442 4.79 0 0-8.498.979-1.98-33.992 0 0 30.333-19.666 87.667 8.667"/>
  <path fill="none" stroke="#000" stroke-width="8" d="M207.891 53.813s14.098-14.271 23.173-19.216"/>
  <path fill="none" stroke="#000" stroke-width="7" d="M206.918 53.813s5.16 13.704 6.693 19.124"/>
  <path fill="none" stroke="#000" stroke-width="6" d="M148.741 47.655S95.322 15.193 43.414 17.268c0 0 13.031 7.407 21.237 12.433 3.148 1.928 5.585 3.506 6.304 4.18 0 0-40.611 8.156-52.117 16.322 0 0 50.01-4.816 75.938 3.61 0 0 18.312 4.213 46.347 18.312 0 0 9.621 5.414 11.667 5.834 27.688 5.681 21.067-19.284 21.067-19.284"/>
  <path fill="none" stroke="#000" stroke-width="8" d="M171.087 72.938s-10.689-4.152-14.512-9.661"/>
  <path fill="none" stroke="#000" stroke-width="6" d="M160.316 65.537s5.59-6.495 12.991-6.331"/>
  <path fill="none" stroke="#000" stroke-width="5" d="M155.465 64.511s-5.05 3.946-5.979-7.194"/>
  <path fill="none" stroke="#000" stroke-width="5" d="M149.487 51.191s-1.462 12.447 10.542 8.012m44.434-8.619c.411 3.873 9.157 15.329 9.978 23.717m9.25-33.354s14.411-11.37 9.264 5.1"/>
  <path fill="none" stroke="#000" stroke-width="5" d="M223.176 41.367s14.458-10.198 9.264 3.744"/>
  <path fill="none" stroke="#000" stroke-width="5" d="M233.566 37.123s-9.688 4.386-15.677 8.924m10.483-13.475c6.807 2.127 9.094 2.745 14.54.487m-.517.902c-1.221 2.13 2.385 3.979-2.375 7.624"/>
  <path fill="none" stroke="#000" stroke-width="6" d="M62.578 35.703s-20.285 3.821-28.434 12.088"/>
  <path fill="none" stroke="#000" stroke-width="2" d="m43.949 14.662-10.452.766 20.431 10.098"/>
  <path fill="none" stroke="#FFF" stroke-width="2" d="M28.123 13.954s22.321-1.595 36.729 0"/>
</svg>