<?xml version="1.0" encoding="utf-8"?>
<svg xmlns="http://www.w3.org/2000/svg" xml:space="preserve" width="38.877" height="23.239">
  <g stroke="#000">
    <path fill="#FFF" d="M36.838 12.581v-10.5"/>
    <path d="M37.332 12.204H18.417l-2.3-9.458v-.542m20.721.376H16.117m2.157.247 18.193 8.754-.349-8.656z"/>
    <path d="M1.877 4.269V5.8s.079.257.122.301c1.173 1.207 3.861 3.232 8.771 4.146l.167.875s1.5 1.375 8.167.958l-2.625-9.5h-2.583L12.62 3.69l-10.219.024-.195.062-.243.243-.086.25z"/>
    <path d="M18.274 12.204s-3.945.16-5.632-.418m2.087 6.045s-1.458 2 0 3.375h17.75c.304-.188 1.644-1.494.262-3.169l-3.845.002-1.525 1.167-6.059-.083-1.5-1.292h-5.083z"/>
    <circle cx="26.948" cy="16.603" r="2.131" fill="none"/>
    <circle cx="22.39" cy="16.603" r="2.131" fill="none"/>
    <path fill="none" d="m24.643 17.564-.585 1.597h1.187l-.428-1.141"/>
    <path fill="none" stroke-width=".75" d="M30.399 12.345s-3.918 1.121.244 5.56m-1.284-1.464.195 1.597"/>
    <path stroke-width=".75" d="m28.448 14.767.716-2.31h-8.081v2.065l2.763.066.675.942 1.439-.91.878-.308z"/>
    <path fill="none" stroke-width=".75" d="M18.854 12.081s3.317 2.391-.26 5.612m.894 0 .618-1.252m.569-1.553-.114-2.663m-.536-.021.455 1.213M17.292 3.159h2.078"/>
  </g>
</svg>