<?xml version="1.0" encoding="utf-8"?>
<!-- Generator: Adobe Illustrator 24.1.2, SVG Export Plug-In . SVG Version: 6.00 Build 0)  -->
<svg version="1.1" id="Layer_3" xmlns="http://www.w3.org/2000/svg" xmlns:xlink="http://www.w3.org/1999/xlink" x="0px" y="0px"
	 viewBox="0 0 1472.52 1213.52" style="enable-background:new 0 0 1472.52 1213.52;" xml:space="preserve">
<style type="text/css">
	.st0{fill:#FFFFFF;}
</style>
<path class="st0" d="M319.93,456.59c0-164.39,73.86-311.53,190.2-410.06c-205.37,77.6-351.42,276.03-351.42,508.57
	c0,300.16,243.33,543.48,543.48,543.48c147.22,0,280.76-58.54,378.63-153.6c-68.13,31.27-143.92,48.71-223.79,48.71
	C560.4,993.69,319.93,753.22,319.93,456.59z"/>
<path d="M857.03,993.69c-296.63,0-537.1-240.47-537.1-537.1c0-168.55,77.64-318.96,199.1-417.43
	c-219.05,87.9-373.62,301.22-373.62,550.44c0,327.71,267.27,593.37,596.97,593.37c284.28,0,522.14-197.52,582.28-462.02
	C1232.41,883.79,1057.56,993.69,857.03,993.69z"/>
</svg>
