<?xml version="1.0" encoding="utf-8"?>
<svg xmlns="http://www.w3.org/2000/svg" xml:space="preserve" width="123.675" height="122.026">
  <g fill="none">
    <ellipse cx="89.583" cy="5.491" rx=".62" ry=".774"/>
    <ellipse cx="62.013" cy="61.296" stroke="#000" stroke-width="7" rx="54.359" ry="53.499"/>
    <path stroke="#000" stroke-width="5" d="M60.565 41.344c.697 3.585.946 10.458-1.167 13.358-3.45-2.469-4.46-7.968-8.217-9.641-2.355-1.049-4.321.192-6.166 1.574-2.037 1.526-3.799 1.88-6.455 1.88h-8.333c-2.175 0-6.527.496-5.125-2.958.835-2.059 3.192-2.547 4.792-3.541 3.582-2.225 2.635-6.305 5.037-9.385 2.7-3.463 4.814-2.684 7.99-.533 3.082 2.086 6.553 3.2 10.125 4.133 2.873.749 6.852 1.684 7.519 5.113z"/>
    <path stroke="#000" stroke-width="5" d="M37.894 34.516c1.226-.12 2.044-.178 3.13.37 1.177.592 1.096 1.259 1.871 2.129 1.228 1.379 4.729 2.118 6.5 2.371 2.499.355 4.701.009 6.17 2.13 1.114 1.607 2.407 3.868 2.471 5.808-1.369.094-3.838-1.95-4.003-3.279-1.569-1.747-1.869-2.998-4.802-2.524-2.036.329-3.766 1.48-5.634 2.198-4.292 1.65-9.068 1.189-13.974 1.311 2.128-2.238 4.605-2.79 7.733-2.313 2.864.437 5.448.358 7.053-2.533-.532-.892-1.11-1.259-2.187-1.162-1.094.099-.894.481-1.959 1.036-1.234.644-4.873.719-4.341-1.512.762-.533 5.1-.2 3.442-2.166-.828-.08-2.221.007-2.829-.533.482-.293 1.011-.893 1.359-1.331m30-4.667c-3.683-.013-3.966-1.797-6-4-2.189-2.372-5.949-1.119-8.809-1.358-.096-.378-.095-1.071.004-1.446 1.892-1.43 5.135-.862 7.638-.862 2.765 0 5.675-.202 8.292.375 4.463.983 8.92 2.718 13.199 4.301 2.172.804 4.276 1.103 6.045 2.658 1.671 1.469 3.129 3.187 4.588 4.879.618.718 1.178 1.653 1.908 2.255.667.551 1.895.947 2.43 1.736 1.333 1.963-2.878 2.777-4.5 2.926-2.514.23-5.313.477-6.959-1.3-1.432-1.546-2.887-2.896-4.638-4.204-3.691-2.758-6.903-5.033-11.403-5.922-.616-.121-1.224-.019-1.796-.204"/>
    <path stroke="#000" stroke-width="5" d="M65.56 24.682c2.038 1.358 3.438 2.054 6 2.334 2.181.238 3.9 1.438 6.005 1.995 2.141.566 4.117.807 6.171 1.791.922.443 1.795.865 2.528 1.51.658.578 1.124 1.63 2.102 1.898.604 1.254 2.531 1.541 2.502 3.281-2.741.221-4.925-2.951-7.141-4.143-1.285-.689-2.187-1.107-3.208-2.125-.937-.934-1.714-1.625-2.958-2.208m11.333 48.667c-.751-1.767-1.557-2.389-.537-4.37.743-1.443 2.204-2.766 4.012-2.438-.069 2.015-1.063 5.313-2.336 6.945-.513.188-1.048.242-1.622.162.556-2.074 1.765-3.99 2.321-6.128.328-1.261.862-5.415 2.633-5.313.484 1.156.379 2.29.696 3.476.37 1.386.718 1.558.162 2.995-.737 1.906-1.928 3.543-3.12 5.047-2.546 3.211-6.138 5.77-8.375 9.148-.389-1.031-1.031-1.531-2.113-1.982.819-.248 1.781-.438 2.497-.992 1.49-1.155 2.586-4.034 2.783-5.883.313-2.936-.781-4.465 1.541-6.459 3.151-2.703 7.321-7.361 3.833-11.357-.463 1.088-.285 2.275-.83 3.361-.408.815-1.062 1.617-1.503 2.33-1.153 1.861-2.103 3.24-4.246 4.25-1.221.576-2.063.684-2.12 1.865-.051 1.07.763 2.23.824 3.51.131 2.719.176 5.182-2.204 6.463-1.505.811-5.668 1.31-3.589 4.162.598.82 1.84.805 2.504 1.663.689.891.528 2.268 1.155 3.187.704-.231 1.319-.63 1.921-1.188.772-.714 1.148-1.779 1.879-2.619.625-.719 1.57-1.115 2.375-1.793 1.568-1.323 2.35-3.02 3.751-4.574 2.521-2.798 7.21-7.492 6.541-11.634-.319-1.972-2.597-2.776-3.634-4.7-.916-1.699-3.141-3.479-3.537-5.297-.453-2.08-.547-6.043-.042-8.049.264-1.047 1.141-1.943 1.42-2.951.314-1.134.487-2.736.591-3.82-.602.361-.955.909-1.157 1.625-3.122.533-3.624-3.74-5.809-4.808"/>
    <path stroke="#000" stroke-width="5" d="M64.227 24.682c2.221-.194 8.129 1.504 9.667 3m-37.5 4.834c2.185-.347 4.85 3.47 6.375 4.791.981.851 1.948 1.611 3.036 2.334 1.486.987 2.623.839 4.255 1.375m-29 22.333c.384-2.538 3.887-2.771 5.167-.834 1.311 1.984.91 4.395 1.504 6.662 1.173 4.477 5.358 6.439 9.5 8 3.696 1.393 10.144.764 14.162.339 2.347-.248 4.269-.243 6.329-1.171 1.772-.799 3.122-2.139 4.78-3.17-2.445 3.618-4.724 7.352-4.942 12.174-.108 2.377-.755 5.957.033 8.135.661 1.826 2.535 3.699 4 4.996 1.2 1.062 2.644 1.649 4.088 2.082 1.286.385 3.017 1.543 4.496 1.287-2.46-.479-5.098-.365-7.653-.63-2.495-.259-4.452-1.34-6.759-2.074-2.347-.747-4.719-.559-5.833-3.166-.897-2.101-.902-4.489-2.5-6.337-2.138-2.472-6.716-4.176-10.009-2.766-.591.953-4.409-.135-5.724-.994-1.735-1.133-4.169-1.332-5.35-3.488-2.154-3.936-4.164-8.367-4.622-12.878-.185-1.82-1.069-3.846-.833-5.667m67.666-6c-.937 2.5-2.58 4.994-4.045 7.122-1.761 2.558-3.562 4.693-6.931 4.903-.256 1.42 2.341 3.975 3.012 4.938 1.48 2.125 1.39 3.618-.744 4.996-3.111 2.01-7.362 5.629-5.098 9.846 2.9 1.209 2.76 1.707 3.497 4.67 1.237.117 2.176.658 3.354-.096.852-.545 1.296-1.638 2.154-2.338 1.756-1.432 3.475-1.902 5.009-3.666 2.787-3.207 6.436-5.479 8.955-9.375 2.897-4.481 4.099-8.809 3.813-14.475-2.001.162-4.591-1.43-5.85-2.816-1.703-1.875-1.333-4.285-1.459-6.876-.108-2.229-.899-5.962-.175-8.175.631-1.93 2.88-2.756 4.342-4.028 2.862-2.491-2.355-2.349-4.009-1.972-2.415.549-3.418 1.869-4.149 4.184-.672 2.129-1.349 3.943-1.342 6.325.006 2.11.605 5.703-.167 7.5"/>
    <path stroke="#000" stroke-width="5" d="M57.227 79.682c-2.02 1.362-5.037.834-7.5.834-2.735 0-5.611.259-8.333 0-2.236-.212-4.436-1.169-6.504-1.821-2.353-.742-4-1.342-5.371-3.637-1.411-2.362-3.145-4.671-3.65-7.348-1.617-.898-1.317-4.514-3.809-4.861-1.803-.252-1.836.875-.829 1.662.984.77 1.68.63 2.333 1.833 2.026 3.731 1.651 9.563 5.315 12.222 1.479 1.073 2.864 3.604 4.55 4.246 2.435.927 5.417-.35 8.008.029 2.003.292 5.565 1.521 7.084 2.711 1.73 1.354 2.066 3.705 3.496 5.338.729.834 1.407 1.404 1.717 2.449.286.965-.096 2.773 1.465 2.651.337-2.1-.479-5.028-.799-7.15-.133-.881-.762-2.51-.309-3.458.443-.927 1.869-1.201 2.434-2.037 1.213-1.799.762-5.756-1.601-2.797-1.279 1.604-1.392 3.939-2.404 5.613-1.163-.605-.828-1.703-1.3-2.643-.549-1.092-1.161-1.234-2.487-1.512-2.379-.5-4.672-.414-7.185-.649-2.014-.189-4.183-1.221-6.194-1.64-1.771-.368-3.839-1.063-4.963-2.536"/>
    <path stroke="#000" stroke-width="2" d="M61.227 47.182c0 1.554.228 3.3 0 4.834-.271 1.819-1.3 1.501-2.195 2.804-2.422.569-3.658-2.619-4.31-4.299-.851-2.194-2.535-3.391-4.625-4.209-2.771-1.086-3.982-.301-6.25 1.158-1.9 1.224-4.058 1.732-6.284 2.05-2.654.378-5.652-.004-8.337-.004-1.918 0-6.518.132-4.791-3.125.975-1.84 4.469-2.358 6.291-2.542 3.125-.314 6.322-.333 9.488-.333 3.857 0 8.358-.899 12.188-.176 1.414.267 3.034 1.097 4.361 1.64 1.185.483 3.531.98 4.297 1.869m31.375-15.36c2.792 1.816 5.196 6.006 8.393 8.16.748 1.969 2.641 3.462 3.089 5.564-1.745-.24-3.593-1.132-5.408-1.1.246.051.536-.021.775-.024.395-1.067 1.872-1.193 2.78-.81-.98.008-1.824-2.279-2.37-3.059-.724-1.033-1.548-1.906-2.455-2.875-1.587-1.695-3-4.457-4.944-5.717m-21.322-.84c1.989.493 2.298 2.201 3.819 3.195 1.409.922 3.067 1.494 4.419 2.594 3.222 2.621 5.312 4.416 6.491 8.379.776 2.607 1.831 4.762 1.823 7.715-.004 1.605.207 2.955.424 4.488.268 1.892 1.017 1.9 2.921 1.803 1.367-5.168.279-11.869-1.557-16.64-.923-2.4-2.494-4.245-4.461-5.889-1.502-1.255-2.985-2.528-4.614-3.716-1.262-.92-2.989-1.604-4.492-2.207-1.351-.541-3.102-1.486-4.749-.82-.136.61-.183 1.346.537 1.378m30.019 38.577c1.811 3.452-.587 7.538-2.7 10.345-1.967 2.613-3.857 5.506-6.375 7.933-.356.344-.749.476-1.048.915-3.021.98-4.796 4.695-8.228 4.91-.558-1.84-.993-4.351-.589-6.429.404-2.074 2.75-5.22 4.205-6.877 1.685-1.919 3.613-3.396 5.193-5.474 1.248-1.643 2.717-3.205 4.353-4.373 1.507-1.076 2.91-1.354 4.345-2.153.514.435 1.469.702 1.126 1.343m-24.269-1.123c-1.356-.351-1.575-.251-2.104.982-.422.981-.526 1.794-.004 2.669.523.877 2.299 3.627 3.224 4.066 2.359 1.123 3.986-1.373 3.654-3.51-.292-1.876-1.973-3.08-3.612-3.963-.572-.308-1.062-.627-1.719-.666m-16.973 5.613c.441-.949 2.439-3.469 3.763-2.781.027 1.059-.197 4.785-2.329 4.151-1.02-.304-.625-1.681-.004-2.185.696-.563 1.86-.087 1.936-1.389-.016.609-.683 1.869-1.231 2.342-.623.538-2.396 1.051-2.135-.42m.842 22.164c.95.516 1.709 1.326 2.666 1.822.986.513 2.333.751 3.397 1.088 1.416.449 6.452 1.328 5.836 3.798-2.086.804-3.44 1.142-5.867 1.147-2.157.006-4.502-.288-6.6-.695-1.887-.365-3.709-1.309-5.635-1.658-2.086-.379-3.39-1.006-5.159-2.137-2.54-1.623-3.188-3.813-4.037-6.482-.479-1.508-.06-2.668-1.715-3.475-1.495-.729-2.952-.205-4.464-.166-1.021-2.521 2.225-2.824 4.043-2.641 2.062.209 4.086 1.521 5.889 2.389 1.894.911 3.544 1.215 5.193 2.552 1.299 1.054 2.307 2.57 3.752 3.371.79.438 1.807.675 2.56 1.087"/>
    <path stroke="#000" stroke-width="2" d="M67.466 101.206c1.182 0 2.721.475 3.766.26-.07-1.275-3.019-1.383-4.025-1.221-.063.215-.061.584 0 .799.239-.002.338.114.541.162m-9.399 1.262c-1.971.268-3.817-.885-5.576-1.438-1.632-.512-3.929-.892-4.804-2.49-.264-.481-.969-2.352-.533-2.916.531-.688 2.387-.28 3.026.002 1.656.733 2.851 2.504 4.275 3.721.818.699 1.892 1.271 2.373 2.119.131.027.245.006.374.044.016.078.031.155.047.233.129.03.244.023.374.047.112.263.273.451.444.678M39.973 87.88c-3.51-.609-1.47 2.846-1.684 4.348-.292 2.057-1.818 1.111-2.696.172-1.803-1.93-3.154-3.793-5.84-4.54-.23-.683-.482-1.481-.136-2.199 1.408-.082 11.854-.118 10.356 2.5m18.235-31.562c-1.151.205-3.18-3.002-3.823-3.893-.885-1.227-2.06-2.676-3.367-3.647-1.807-1.343-3.557-.617-5.193.487-1.635 1.104-3.247 1.725-5.292 1.862-4.531.306-9.377.429-13.887.141-4.651-.298-5.767-4.78-3.051-8.241 2.199-2.804 6.323-3.421 7.126-7.182.396-1.857.417-3.828 1.855-5.158 1.283-1.187 3.086-1.924 4.551-2.88.942-.614 1.336-.89 2.539-.782.929 1.789 2.133 2.391 4.093 2.913 1.948.52 3.381 1.552 5.333 1.968 1.877.402 3.745 1.163 5.495 1.937 1.766.78 3.91 1.364 5.264 2.596 2.918 2.653 4.31 6.353 3.686 10.481-.423 2.799.763 10.403-3.334 10.692-1.018.071-1.635-1.075-2.696-1.435"/>
    <path stroke="#000" stroke-width="2" d="M34.362 88.722c2.123.469 1.105 3.815 3.064 3.626-.173-1.272-.833-4.387-1.826-5.005-2.121-.158-2.5 2.997.146 2.616 0-.41-.203-.714-.543-.957m7.715-13.242c1.697 0 2.733-.173 4.208-.704 1.345-.482 2.921-.346 4.348-.561 2-.301 6.505-2.381 7.832-.256.744 2.968-6.913 2.822-8.533 3.065-2.917.437-5.775.382-8.012-1.408.059-.255.155-.036.297-.137m-21.04-29.54c-1.014.78-1.509 2.771-.841 4.067.682 1.323 2.888 1.585 4.184 1.519 1.527-1.87-2.285-4.132-3.342-5.446m20.198 5.19c2.087-.218 3.349-1.45 5.338-1.677 1.917-.217 3.262 1.008 4.646 2.206 1.383 1.198 2.354 2.378 3.339 3.823.661.969 2.69 3.318 4.071 2.956 1.527-.4 2.136-5.098.543-5.334-1.083-3.745-5.727-5.692-9.24-6.044-2.422-.242-11.973-.465-10.216 3.904.65.215 1.359.162 2.081.165m43.764-3.226c0 2.309-1.278 11.069 2.5 10.356 2.211-3.486-.854-7.361-1.399-10.616-.384-.013-.878-.102-1.262-.021-.03-.004.164.184.301.28M57.928 25.037c2.801.342 4.275 8.694 8.111 6.007.445-2.071-.607-4.322-2.076-5.73-1.722-1.65-4.049-1.639-6.436-1.518-.092.359-.026.768.143 1.076.226-.035.302.132.397.165m12.766 5.61c.314 1.729 5.759 6.708 7.044 4.1 1.581-3.21-6.614-7.143-6.904-3.959m-14.448 70.979c-1.163.715-4.409-.989-5.611-1.402-2.05-.705-3.125-1.469-3.889-3.545-.687-1.866-1.389-3.992 1.364-4.42 2.524-.393 3.052 1.672 4.037 3.507.703 1.31 1.463 1.864 2.587 2.743.928.727 2.704 1.551 2.473 2.957-.478.152-.985.203-1.522.16m22.584-26.232c0 1.712-.323 2.618-1.851 3.761-1.208.902-2.286 1.684-3.511 2.661-3.106 2.481-1.761 5.751-.506 8.845.078.016.156.031.233.047.039.131.012.244.043.377.804.227 1.818.592 2.403 1.104.748.656.645 1.693 1.536 2.111 2.699 1.267 2.633-3.205 2.633-4.59 0-1.473-.006-2.863-.276-4.219-.22-1.105-.486-2.33-.424-3.502.095-1.788 2.344-4.168 1.271-6.184-.01-.036-.021-.072-.031-.109-.654.08-1.072-.359-1.522-.723m23.849-7.294c.212-.038.473-.005.68.021.09 4.358-.122 8.023-2.227 11.478-1.864 3.063-4.497 5.322-6.769 8.101-1.239 1.516-2.518 2.817-4.31 3.687-1.646.798-3.451 2.764-5.167 3.109-.016.078-.031.155-.047.233-.685.19-1.431.429-2.2.282-.283-2.531-.446-4.043 1.834-5.835 2.058-1.618 3.344-2.946 4.563-5.374 1.162-2.313 2.55-4.729 3.791-7.002.961-1.761 1.209-3.882 2.377-5.512.695-.971 2.031-2.232 2.981-2.869 1.292-.865 2.871-.6 4.492-.6"/>
    <path stroke="#000" stroke-width="2" d="M103.31 68.543c.216-1.614 1.635-4.539-.611-5.269-1.948-.633-3.843 1.795-4.832 3.112-1.349 1.799-2.096 3.785-1.357 6.056.667 2.051 2.83 3.297 4.868 1.547 1.588-1.364 1.674-3.529 1.932-5.446z"/>
    <path stroke="#000" stroke-width="2" d="M98.046 61.929c1.005 0 2.253.205 3.234.008.979-.198 1.474-.854 2.637-.688.385 2.609-5.564 1.482-6.522.393.256.008.539-.029.792.007M57.086 35.137c1.687-.123 3.893 2.163 4.878 3.259 1.577 1.752 1.659 4.367.569 6.396-3.603 1.194-5.587-1.236-7.297-3.732-.861-1.257-2.083-2.209-1.8-3.963.302-1.873 1.604-1.961 3.229-1.96m-24.267-2.806c-1.549.765-2.122 2.941-2.525 4.486-.669 2.563-1.747 2.156-3.545 3.611-1.078.873-3.035 3.176-1.505 3.857 2.092.932 3.291-2.387 3.67-3.796.078-.016.156-.031.233-.047.458-1.153 5.599-7.287 3.39-7.832M22.018 59.825c-1.904.007-4.3.686-4.075 3.093.068.726.866 1.703 1.091 2.417.294.931.314 2.033.463 3.043.152 1.036.63 1.953.837 2.95.214 1.03.216 1.864.741 2.766 1.637 2.812 2.752.075 2.062-2.065-1.157-3.584-3.411-8.475-.979-12.203m4.769 23.846c.297 1.586 2.249 3.579 3.538 4.737 1.369 1.232 3.223 3.325 5.416 2.953 2.055-4.221-4.882-7.96-8.532-7.972m38.855-56.81c.019 2.601 1.984 2.608 4.348 2.385 1.405-.133 3.818-1.019 4.601-2.354 2.055-3.51-7.533-1.676-8.949-.311m33.9 15.904c.461.313.915.683 1.411.938.449.231 1.003.411 1.101.956-.658-.137-1.468-.626-2.068-.923-.255-.126-.574-.233-.667-.528-.109-.344.153-.748.525-.658-.012.072.04.097.051.127m-1.413 23.318c-.356.34-.752.946-.708 1.485.21-.305.479-.622.743-.863.014.182.01.371.01.557.017-.29.377-.508.618-.604m-14.75.83c0 .402-.208 1.488.221 1.684"/>
    <path stroke="#000" stroke-width="2" d="M102.401 62.077c.312-.057.675-.137 1.006-.078.437.076.452.216.451.652-.001.543.202 1.68-.222 2.02-.519.418-1.373.016-1.599-.552-.249-.622-.32-1.386.273-1.733.105-.062.211-.111.312-.177m-16.34-7.153c.396.29.284 1.217.309 1.722.031.609.076 1.266.044 1.899-.037.756-.327 1.33-.532 2.029-.158.542-.484 1.102-.484 1.68M64.377 30.992c-.243 1.357 2.672 1.061 3.445 1.061 1.586 0 3.112.118 4.637.351 1.801.273 3.422 1.072 5.255 1.371"/>
    <path stroke="#FFF" stroke-width="2" d="M61.242 31.577c.518.171 1.029.662 1.592.884.522.204 1.098.47 1.642.61 1.358.352 2.874-.018 4.196.396 1.083.339 2.865.257 2.595 1.914-.263 1.608-3.522 1.022-4.593.576-.721-.299-1.458-.627-2.064-1.076-.59-.434-1.202-.824-1.823-1.138-.495-.249-3.375-1.485-2.949-2.335.095-.19.637-.333.831-.274.273.082.371.491.573.62"/>
    <path stroke="#FFF" stroke-width="2" d="M72.547 38.985c1.228-.048 3.173 1.692 4.185.211.459-.672.083-1.307-.353-1.832-.333-.4-.757-.934-1.191-1.239-1.147-.806-2.155-1.263-3.612-1.334-.795-.039-1.237.147-1.323 1.015-.082.833.356 1.393.86 2.021.369.459 1.119 1.396 1.744 1.379"/>
    <path stroke="#FFF" stroke-width="2" d="M69.677 34.172c1.296-.036 2.936 1.128 3.841 2.01.184.179.545.598.346.896-.159.237-.792.214-1.051.175-.985-.146-2.154-.883-2.872-1.545-.244-.225-.647-.537-.806-.861-.25-.514.445-.892.675-.498"/>
    <path stroke="#FFF" stroke-width="2" d="M75.506 36.601c.51-.073 1.424.949 1.814 1.238.493.365.999.746 1.496 1.093 1.172.818 2.25 1.995 2.96 3.237.295.516.431 1.789.057 2.359-.625.951-2.076-.298-2.696-.698-1.696-1.095-3.475-2.188-4.768-3.764-.511-.623-1.319-1.538-.928-2.405.382-.848 1.724-1.186 2.418-.663m7.155 7.508c.469.017.914.962 1.104 1.325.274.523.472 1.133.529 1.723.122 1.258.275 3.23-.759 4.096-.594.498-1.483.408-2.055-.047-.635-.506-.908-1.535-1.061-2.332-.142-.738-.055-1.572-.055-2.336 0-.784.002-1.226.707-1.633.228-.131.443-.259.699-.318.171-.169.614-.406.891-.434m17.09-8.702c.225.585.375 1.175.739 1.68.316.438.728.841 1.113 1.201.481.45.912.862 1.407 1.282.389.33.843.82 1.355.972.135.04.217.087.368.068.695-1.235-.733-2.954-1.58-3.745-.502-.469-.978-1.117-1.592-1.359-.351-.139-1.552-.582-1.777-.109-.031.064-.039.107-.033.188m-31.71 51.656c1.162.903 1.646 3.001 2.463 4.204.522.77 3.379 3.312 2.003 4.43-1.165.945-3.871-1.909-4.592-2.676-1.213-1.291-1.832-3.758-.846-5.429.322-.031.814-.116 1.138-.029m-3.495-9.156c-.43.223-1.214.673-1.502-.005-.108-.253-.048-.622.037-.866.063-.18.216-.581.336-.682.014-.268.19-.569.285-.82.104-.273.213-.547.312-.811.223-.597.5-1.162.717-1.782.137-.394.249-.825.473-1.184.247-.396.596-.534 1.066-.558.487-.023.881.24 1.125.657.274.468.228 1.056.228 1.587 0 .715-.241 1.325-.552 1.953-.213.432-.514.783-.736 1.175-.114.204-.324.358-.465.546-.104.139-.197.281-.321.391-.305.271-.732.25-1.024.462m12.269-15.641c.307.006.71.281.96.462.262.19.487.39.483.747-.003.318-.299.611-.419.893-.113.265-.25.514-.494.686-.564.396-1.344.428-2.038.46-.712.034-1.655.194-2.059-.531-.375-.675-.085-1.726.525-2.17.587-.427 1.518-.633 2.234-.563.161.016.31.102.466.123.169.023.359 0 .531 0"/>
    <path stroke="#FFF" stroke-width="2" d="M77.44 61.347c.732 0 1.745-.065 1.868.828.094.684.034 1.508-.303 2.074-.395.664-1.188.814-1.815 1.156-.568.311-1.113.648-1.682.993-.196.118-.41.266-.568.408-.187.167-.328.439-.533.596-.043.298-.613.417-.851.418-.474.001-.987-.168-1.295-.536-.381-.454-.628-1.006-.68-1.584-.031-.342-.083-.789-.017-1.127.066-.332.263-.676.442-.967.391-.632.799-1.094 1.406-1.516.515-.359 1.107-.518 1.689-.719.638-.221 1.425-.531 2.105-.303.243.082.473.188.701.256"/>
    <path stroke="#FFF" stroke-width="2" d="M78.458 60.88c.235.184.498.355.737.541.26.202.364.514.575.715.126.602.094 1.295-.066 1.886-.126.463-.44 1.312-.988 1.382-.167.181-.49.293-.704.443-.246.173-.472.344-.744.444-.542.201-1.189.27-1.718.553-.479.257-.88.657-1.358.951-.315.194-.714.366-1.104.388-.381.021-1.001.101-1.315-.133-.24-.18-.327-.467-.421-.738-.123-.356-.285-.707-.324-1.086-.083-.803-.117-1.751.149-2.512.51-1.458 1.647-2.545 3.119-3.02.532-.172 1.043-.359 1.604-.389.397-.02.823-.023 1.221.001.536.034.906.487 1.379.637M62.539 68.16c-.378.048-.223.529 0 .675.328.213.742.149 1.104.131.702-.035 1.306.009 1.596.681.255.591.251 1.255.251 1.952v1.062c0 .335-.088.793.404.7.615-.115.917-1.066.912-1.592m6.346 1.674c.21.089.406.392.589.536.222.174.373.35.561.563.311.354.819.653 1.164 1.002.202.203.379.343.609.516.262.195.329.42.345.737.034.681-.578.834-1.066 1.099-.543.295-1.151.445-1.736.642-.661.222-1.392.462-2.08.552"/>
    <path stroke="#FFF" stroke-width="2" d="M65.022 76.457c-.094-.382.011-.906.064-1.295.091-.673.285-1.31.361-1.974.073-.641-.047-1.371.191-1.953m-4.994-1.969c-.249.426-.695.812-.992 1.218-.335.458-.6.859-1.081 1.209-1.048.761-2.366.614-3.677.614-1.399 0-3.146.266-4.417-.25-.551-.224-1.049-.905-.419-1.345.83-.58 2.333-.808 3.325-.863.631-.035 1.35-.232 1.969-.167"/>
    <path stroke="#FFF" stroke-width="2" d="M57.185 70.974c-.726.949-2.391 1.184-3.54 1.294-1.325.128-2.671.186-3.96.331-1.345.152-2.665.284-3.956.543-1.31.264-2.541.486-3.919.332-.517-.058-.896.072-.917-.542-.018-.523.219-1.12.478-1.563.527-.901 1.433-2.099 2.397-2.521"/>
    <path stroke="#FFF" stroke-width="2" d="M36.519 70.766c-.586-.131-.718 1.052-.627 1.458.132.592.749.759 1.254.958 1.205.475 2.373.52 3.704.586 1.592.08 2.966-.14 4.46-.46 1.387-.297 2.85-.629 4.115-1.293 1.114-.586 2.519-.964 3.385-1.833"/>
    <path stroke="#FFF" stroke-width="2" d="M54.227 68.724c-.164.065-.332.234-.469.365-.965.922-2.012 1.896-3.115 2.677-.473.334-.99.708-1.427.98-.424.264-1.021.646-1.525.692-.004.023-.009.047-.014.07-.487.1-.942.355-1.42.537-.5.191-1.008.192-1.522.354-1.071.338-2.707.285-3.882.114-1.125-.165-2.194-.541-3.243-.968-.821-.333-1.978-.98-2.333-1.914-.194-.51-.119-1.243.292-1.607.505-.447 1.17-.305 1.741-.176"/>
    <path stroke="#FFF" stroke-width="2" d="M44.144 73.349c-.043.004-.076-.006-.118.008-.484.563 1.14.492 1.409.492.665 0 1.352.053 1.956-.127 1.112-.332 2.157-.861 3.296-1.165 1.35-.359 2.773-.725 3.998-1.45.762-.453 1.727-.977 2.334-1.674.44-.504.829-1.093 1.208-1.626m15.333 36.625c-.692 0-1.344-.103-2.002.081-.607.17-1.189.377-1.831.505-.679.136-1.439.179-2.125.248-.723.073-1.42.235-2.122.333-.57.08-1.132.168-1.711.167M42.935 93.474c0-1.233-.742-2.275-1.876-2.697-.417-.156-1.445-.342-1.885-.146-.59.262-.432 1.133-.249 1.604.296.762.624 1.384 1.097 2.074.237.347.405.719.705 1.031.225.233.569.387.708.677m-10.166-3.251c.667-.001 1.246.206 1.835.414.523.185 1.115.54 1.658.593.004.023.009.046.014.069.488.091 1.023.438 1.46.624.591.25 1.166.588 1.73.925 1.168.696 2.375 1.526 3.303 2.541"/>
    <path stroke="#FFF" stroke-width="2" d="M30.435 92.224c.621-.066 1.161.297 1.706.461.576.172 1.161.281 1.713.453 1.127.354 2.207.828 3.332 1.242 1.225.451 2.551 1.146 3.375 2.177m3.999 4.167V99.65c0-2.641.222-5.615-1.363-7.727-.329-.438-.747-.629-1.148-.98-.464-.404-.899-.616-1.614-.511-.635.094-1.099.525-.863 1.167.205.559.535 1.047.488 1.708"/>
    <path stroke="#FFF" stroke-width="2" d="M40.852 94.057c-.364-.472-.782-.862-1.042-1.416-.23-.49-.592-1.243-.493-1.827 1.046-.671 2.565-.145 3.336.566 1.03.951 1.426 2.137 1.742 3.429.111.455.04 1.05.04 1.54"/>
    <path stroke="#FFF" stroke-width="2" d="M41.31 93.432c-.275-.288-.756-.521-1.094-.78-.319-.248-.624-.592-.982-.768-.014-.039-.001-.072-.014-.111-.416-.338-.503-1.193.048-1.379.606-.205 1.321.048 1.877.16.611.125 1.137.133 1.613.587.345.329.691.86.917 1.3 1.113 2.159.156 5.008.675 7.366"/>
    <path stroke="#FFF" stroke-width="2" d="M45.894 104.016c-.333-.289-.34-1.399-.426-1.845-.154-.805-.296-1.648-.324-2.478-.026-.776.108-1.646-.039-2.389-.119-.6-.261-1.263-.41-1.831-.354-1.347-.31-2.834-1.103-4.03-.203-.306-.348-.749-.677-.946-.276-.167-.78-.168-1.102-.233-.91-.185-3.083-.503-2.71 1.127.092.401.449.567.792.791M20.144 79.016c.062.464.526 1.063.74 1.468.28.53.674.969.978 1.48.628 1.058 1.257 2.065 2.147 2.886.352.325.651.794 1.128 1.007.599.745 1.36 1.532 2.121 2.211.384.342.708.715 1.053 1.064.385.389.847.695 1.158 1.117.395.273.916.885 1.31 1.264.466.449.938.889 1.407 1.336"/>
    <path stroke="#FFF" stroke-width="2" d="M18.602 76.557c.428.345.745.982 1.032 1.427.311.48.614.871.935 1.355.598.906 1.21 1.918 1.899 2.727.794.93 1.522 1.857 2.291 2.795.691.843 1.478 1.594 2.125 2.455.763 1.016 1.752 1.761 2.625 2.668.423.439.945.979 1.385 1.49.417.483.925.799 1.408 1.249.186.173.37.384.591.543"/>
    <path stroke="#FFF" stroke-width="2" d="M18.352 74.432c-.052.495.476 1.218.718 1.573.307.45.721.902 1.023 1.354.585.875 1.201 1.729 1.81 2.604.63.906 1.382 1.626 1.98 2.55.696 1.075 1.421 2.146 2.059 3.254.353.612 1.148 1.286 1.374 1.949.473.331.84.996 1.253 1.414.49.496.953.986 1.469 1.436 1.018.884 1.921 1.734 3.052 2.459.752.482 1.541.981 2.312 1.42.655.374 1.437.662 1.99 1.112"/>
    <path stroke="#FFF" stroke-width="2" d="M18.477 74.807c-.084.552.416 1.346.675 1.823.284.523.666 1.063 1.001 1.584.438.682.966 1.186 1.166 1.979.216.858.934 1.239 1.332 1.982.426.116.874.789 1.202 1.091.385.355.834.731 1.199 1.136.762.846 1.526 1.617 2.271 2.436.763.839 1.389 1.669 2.208 2.418.39.355.846.732 1.188 1.104.346.375.617.874 1.05 1.209.928.718 1.981 1.309 2.878 2.02 1.184.939 2.422 1.887 3.685 2.782.531.376 1.014.999 1.563 1.271m-9.918-39.626c-.172-.487-1.393-.336-1.833-.375-.668-.06-1.391-.042-2.083-.042-1.387 0-2.394.526-3.709.707-1.212.166-2.44.387-3.543.876-.954.423-2.164.884-2.583 1.915-.343.842-.248 2.053-.248 3.002 0 1.073.035 2.082.208 3.083"/>
    <path stroke="#FFF" stroke-width="2" d="M18.644 56.474c-.513 0-1.774-.109-1.708.625.042.475.821.887 1.206 1.045 1.149.471 2.4.52 3.71.58 2.792.131 6.108.636 8.833-.167.4-.118.971-.196 1.344-.406.239-.135.794-.75.491-1.01"/>
    <path stroke="#FFF" stroke-width="2" d="M24.227 55.641c.492.181.892 1.031.782 1.532-.119.544-.66.795-1.104 1.063-.477.287-.858.613-1.419.705-.629.105-1.279.205-1.883.366-1.093.291-2.21.728-3.169 1.325-1.129.705-1.534 1.9-1.041 3.176.323.834.5 1.793.5 2.708 0 .559-.053.958-.22 1.468-.149.453-.38.996-.447 1.448"/>
    <path stroke="#FFF" stroke-width="2" d="M20.352 58.016c-.221.243-.583.495-.757.743-.303.117-.636.446-.953.631-.338.196-.728.359-1.033.633-.167.52-.572.947-.717 1.492-.151.568-.228 1.293-.167 1.92.057.592.322 1.086.377 1.706.06.677.066 1.393.042 2.083-.018.496-.164.893-.282 1.342-.096.365-.165.878-.551 1.033"/>
    <path stroke="#FFF" stroke-width="2" d="M17.685 59.349c-.582.174-1.419.59-1.657 1.217-.103.272-.153.645-.135.95.02.34.25.592.258.909.339.382.509.973.733 1.475.225.504.404 1.043.584 1.584.403 1.212.345 2.499.06 3.75-.087.384-.134.777-.269 1.157-.121.341-.327.763-.366 1.125"/>
    <path stroke="#FFF" stroke-width="2" d="M16.477 66.266c1.388-.184 1.292 2.206 1.292 3.083 0 1.563-.134 3.186 0 4.74.028.322.104.537.25.76"/>
    <path stroke="#FFF" stroke-width="2" d="M14.727 62.849c1.016-.104 1.703 1.458 2.074 2.176.569 1.101.55 2.405.676 3.657.06.593.374 1.081.46 1.665.089.604.155 1.183.332 1.752.373 1.201.679 2.357.876 3.583.117.726.224 2.935-1.001 2.792m5.5-19.792c.465 0 .914-.038 1.335.124.354.137.63.441 1.033.467.324.338 1.104.479 1.55.658.672.27 1.398.607 2.022 1.002 1.796 1.135 3.553 2.447 5.312 3.677.404.282.801.622 1.165.906m.999 3.916c-1.546.163-1.886 1.607-1.323 2.823.21.455.394 1.02.76 1.362.377.354.91.695 1.387.907 1.217.541 2.48.866 3.885.866.701 0 1.55.124 2.197-.136.34-.136.655-.34 1.006-.498.382-.174.919-.275 1.129-.617.368-.598.254-1.431.407-2.082.112-.475.25-.877.426-1.334"/>
    <path stroke="#FFF" stroke-width="2" d="M34.894 69.224c-.117.178-.28.375-.407.592-.133.229-.164.508-.419.666-.083.576-.456 1.141.046 1.689.332.363.928.632 1.364.855 1.463.748 3.219.811 4.25-.668.575-.826.868-1.979.875-2.968"/>
    <path stroke="#FFF" stroke-width="2" d="M43.977 73.932c-.624.004-1.288.229-1.873.419-.593.192-1.185.265-1.835.29-1.088.042-2.712-.091-3.423-.952-.453-.112-.9-.547-1.358-.766-.498-.238-.975-.441-1.353-.814-.843-.836-1.37-1.898-1.324-3.136.025-.688.294-1.29.417-1.957"/>
    <path stroke="#FFF" stroke-width="2" d="M32.352 67.016c-.214.56-.374 1.062-.177 1.709.152.504.314 1.085.562 1.541.251.464.537.89.792 1.405.259.521.637.832 1.083 1.167.894.671 1.756 1.203 2.791 1.553 1.335.451 3.239.618 4.618.118.729-.266 1.507-.703 2.197-1.078.442-.24 1.108-.568 1.384-.999M30.269 30.016c-.494 1.088-.751 2.257-.991 3.425-.124.6-.28 1.206-.343 1.825-.062.607-.107 1.188-.385 1.707-.525.979-2.051 1.218-2.987 1.544-1.198.417-2.506.891-3.585 1.457m-1.084 2.875c-.4 2.303-1.953 4.547-1.209 7.043.273.917 1.32 2.025 2.032 2.635 1.04.887 2.237.822 3.594.822 1.509 0 2.983.131 4.495.206.824.041 1.627.146 2.464.222.436.039.872.064 1.302.112.277.03 1.02-.017 1.233.134.011.023.013.049.006.076"/>
    <path stroke="#FFF" stroke-width="2" d="M22.56 39.224c.546 1.16-.146 2.033-.761 2.998-.621.975-1.337 1.744-1.781 2.834-.698 1.712-.874 3.383-.874 5.293"/>
    <path stroke="#FFF" stroke-width="2" d="M21.394 39.266c.593-.086.69 1.127.708 1.5.035.722-.143 1.16-.47 1.791-.528 1.019-1.119 1.907-1.491 2.956-.385 1.085-.708 2.413-.706 3.627.001.748-.094 1.502-.042 2.253.043.623.3 1.29.25 1.914"/>
    <path stroke="#FFF" stroke-width="2" d="M21.644 37.724c.475-.104.877.727 1.032 1.092.261.615.063 1.171-.118 1.739-.17.536-.463 1.062-.666 1.585-.203.524-.295 1.043-.583 1.541-1.253 2.165-1.768 4.83-1.155 7.414.188.79.423 1.445.948 2.079.347.419 1.161 1.362 1.75 1.3m.042-1c.394.484 1.401.143 1.877.001.59-.176 1.216-.243 1.832-.366 1.251-.252 2.702-.177 4-.177h8.5c1.456 0 2.983-.073 4.375.209 1.339.272 2.691.082 3.947.595.098.039.232.092.345.113"/>
    <path stroke="#FFF" stroke-width="2" d="M51.56 54.641c-.064-.684.122-1.308-.166-1.96-.242-.549-.593-.938-1.095-1.277-.981-.663-1.797-1.395-3.105-1.213-.568.08-1.396.41-1.792.795-.387.377-.607.734-1.081 1-1.532.859-3.596.613-5.355.777-1.479.139-3.012.237-4.448.378"/>
    <path stroke="#FFF" stroke-width="2" d="M54.477 57.682c-.322-.425-.498-.896-.845-1.325-.32-.395-.66-.746-.939-1.183-.561-.88-.764-2.022-1.258-2.95-.275-.519-.604-.759-1.042-1.125-.366-.306-.716-.762-1.162-1.012-.011-.021.045 0 .03-.018-.449-.277-1.402-.299-1.952-.221-.562.08-1.177.265-1.542.75-.681.909-1.066 2.021-2 2.801-.192.16-.383.271-.583.449"/>
    <path stroke="#FFF" stroke-width="2" d="M49.727 55.016c1.856-1.821 3.912 2.201 4.969 3.239.342.335.63.676.906 1.011"/>
    <path stroke="#FFF" stroke-width="2" d="M50.269 53.099c.978 0 1.128.389 1.572 1.135.299.503.612 1.34 1.129 1.664.197.602.768 1.104 1.174 1.576.383.444.833 1.096 1.333 1.458"/>
    <path stroke="#FFF" stroke-width="2" d="M49.394 52.724c.593-.402 1.082-.377 1.555.113.321.332.713.806.947 1.218.515.905 1.149 1.812 1.778 2.681.332.458.718.931 1.105 1.354.42.458.885 1.024 1.365 1.385m-6.125-4.043c.486-.222.016-1.54-.176-1.907-.232-.447-.581-.959-.918-1.334-.729-.811-1.632-1.65-2.781-1.634-.18.003-.36-.025-.422.116-.521.078-.904.524-1.327.793-.454.287-1.03.525-1.552.582-.683.072-1.392.016-2.074.051-.67.034-1.332.191-2 .25-2.874.254-5.788.518-8.583 1.334-.684.199-1.401.376-2.095.539-.749.176-1.474.513-2.238.585"/>
    <path stroke="#FFF" stroke-width="2" d="M51.852 55.099c.492.174 1.092.663 1.49 1.01.426.371 2.07 2.333 2.396 2.605.436.365 1.025.456 1.531.635.615.217 1.074.333 1.792.333.691 0 1.276-.073 1.949-.134.615-.057 1.424-.174 1.935-.523.458-.313.985-.793 1.408-1.176"/>
    <path stroke="#FFF" stroke-width="2" d="M48.685 51.224c1.07.008 2.069.908 2.875 1.551.798.638 1.457 1.894 2.052 2.814 1.364 2.111 2.359 4.381 4.324 6.125.08.07.172.149.249.218"/>
    <path stroke="#FFF" stroke-width="2" d="M47.102 51.099c.314-.012.505-.287.781-.385.264-.095.614-.166.896-.084.508.145.887.619 1.333.877.984.566 1.682 1.439 2.375 2.289.744.909 1.564 1.803 2.23 2.855.707 1.117 1.332 2.339 2.143 3.361.518.654 1.106 1.344 1.782 1.837.426.312.916.554 1.459.541.367-.009.686-.2 1.042-.167"/>
    <path stroke="#FFF" stroke-width="2" d="M46.352 52.182c.287-.669.449-.937 1.125-1.161.596-.199 1.382-.48 2.084-.298.479.125.861.868 1.174 1.241.396.471.771.861 1.147 1.271.9.982 1.591 2.131 2.355 3.23.69.992 1.328 2.21 2.226 2.978.812.694 1.646.921 2.65 1.163.703.168 1.43.329 2.146.502.494.119.999.348 1.218-.26"/>
    <path stroke="#FFF" stroke-width="2" d="M46.269 53.807c.268-.604.057-1.216.467-1.78.146-.201.371-.512.585-.627.282-.15.63-.065.948-.134.606-.13 1.165-.286 1.832.001.516.223.975.729 1.418 1.072 1.761 1.366 2.767 3.482 4.01 5.335.674 1.005 1.377 1.81 2.49 2.384.695.359 1.475.291 2.243.291.56 0 1.437.234 1.882-.125M33.935 26.016c.843.67 2.565-.226 3.456-.462 1.176-.311 2.383-.104 3.21.752 1.339 1.387 2.802 1.876 4.751 1.876"/>
    <path stroke="#FFF" stroke-width="2" d="M40.31 24.682c.353.266.639.936.887 1.331.315.504.388 1.055.561 1.598.181.569.376.875.831 1.246.439.357 1.109.588 1.64.699 1.055.222 2.231.201 3.321.251 1.293.06 2.612.081 3.886.084"/>
    <path stroke="#FFF" stroke-width="2" d="M52.894 30.724c.013-.045.007-.08.038-.117-.586-.268-1.165-.426-1.787-.59-.354-.094-.667-.248-1.045-.305-.352-.052-.72-.008-1.081-.03-.321-.021-.605-.149-.916-.207-.341-.063-.691-.022-1.043-.043-.614-.036-1.233-.176-1.875-.208-1.201-.061-2.429-.105-3.333-.957-.435-.409-.544-.924-.792-1.418-.27-.539-.706-1.015-1.114-1.47-.641-.714-1.21-1.333-1.969-1.905"/>
    <path stroke="#FFF" stroke-width="2" d="M43.227 27.974c.239.874 1.233 1.039 1.673 1.66.609.125 1.167.378 1.774.559.636.188 1.329.177 1.927.332 1.487.387 2.938.703 4.5.909 1.135.149 2.136.476 3.252.707 1.105.229 2.215.403 3.29.625m-36.458 5.541c.167.481 1.393.399 1.833.334.573-.085 1.192-.367 1.759-.491.565-.123 1.128-.207 1.626-.498.543-.318.716-.801.864-1.387.153-.611.084-1.34.084-1.999 0-.681.172-1.222.331-1.834.17-.657.457-1.336.701-1.958.29-.738.513-1.397 1.093-1.99.532-.545 1.457-1.369 2.208-1.51m33.751 9.75c-.568.068-.938.557-1.239 1.011-.292.44-.625.919-.874 1.415-.561 1.116-.365 2.521-.303 3.782.052 1.056.23 2.036.315 3.065-.13.604.062 1.295.06 1.935-.002.67.042 1.354.042 2.042 0 .722-.079 1.49 0 2.207.07.635.362 1.381.635 1.959.189.4.366.824.572 1.197.194.354.503.722.584 1.095m1.583-38.208c-1.565.006-3.029.206-4.542.292-1.297.074-2.768.245-3.989.552-2.587.65-5.353 1.188-7.847 2.073-1.136.403-1.912 1.009-2.696 1.971-.839 1.03-.342 2.192.313 3.165.725 1.076 1.924 1.263 3.122 1.375 1.26.119 2.673.268 3.605 1.154.297.283.5.624.74.967.223.32.463.889.793 1.076"/>
    <path stroke="#FFF" stroke-width="2" d="M49.602 20.599c.524.266 1.403.126 1.957.041.752-.115 1.499-.297 2.284-.333 1.416-.064 2.922-.001 4.301-.207 3.237-.483 6.607-.501 9.968-.501 1.68 0 3.354.048 5 .126 1.927.091 3.747.546 5.571.997 1.376.34 2.757.752 4.127 1.002m-34.5 3.708c.422.046.892.722 1.251.97.441.305 1.004.574 1.508.688.3.068.666.127.991.093.341-.036.488-.177.783-.259.585-.164 1.238-.199 1.884-.199.639 0 1.446-.121 2.052.031.631.159 1.081.717 1.396 1.262.721 1.246.854 2.695 1.752 3.85.058.074.079.133.133.19m4.167.958c.563.274 2.031.125 2.667.125.71 0 1.373-.042 2.083-.042.692 0 1.38-.054 2.002.166.509.18.954.49 1.406.803.633.436 1.202 1.039 1.708 1.623.283.327.553.738.769 1.113.224.389.34.9.616 1.212"/>
    <path stroke="#FFF" stroke-width="2" d="M61.852 18.016c-.245.74.266.927.866 1.133.597.205 1.095.479 1.717.575.649.1 1.331.064 1.989.127.637.061 1.278.245 1.918.342.637.096 1.342.021 1.968.114.707.106 1.343.259 2.042.462 1.507.437 3.106.902 4.667 1.215 1.405.28 2.92.609 4.375.699 1.519.094 3.051.083 4.583.083M72.144 34.891c-.001-.239-.281-.519-.453-.679.144-.39-1.019-.885-1.305-.98-.641-.211-1.241-.304-1.917-.373-1.318-.137-2.6-.077-3.792-.583-1.119-.475-2.35-.79-3.452-1.298-.454-.21-.897-.669-1.414-.869-.608-.234-1.233-.46-1.831-.595-.465-.105-1.066-.15-1.585-.165"/>
    <path stroke="#FFF" stroke-width="2" d="M62.644 31.849c-1.229.055-1.87-1.502-2.051-2.449-.192-1.004-.696-2.345-1.699-2.76-.98-.406-2.203-.229-3.25-.124-1.209.121-2.143.558-3.25.875"/>
    <path stroke="#FFF" stroke-width="2" d="M56.56 29.141c.205-.612 1.302-.659 1.833-.667.643-.01 1.09.284 1.374.795.25.45.791.805 1.2 1.215.332.332.78.693 1.216.94 1.312.742 2.961 1.108 4.418 1.675m32.668 17.25c-.016-.537-.595-1.131-.699-1.676-.117-.615.038-1.277.323-1.785.234-.416.551-1.029.863-1.342.503-.503 1.288-.385 1.927-.32 1.076.109 2.145.458 2.962 1.197.784.707 1.422 1.867 1.915 2.759"/>
    <path stroke="#FFF" stroke-width="2" d="M98.019 50.141c0-1.216-.559-2.852.418-3.739.506-.459 1.028-.996 1.739-1.145.895-.188 2.208.48 2.885 1.053.576.484.785 1.238.958 1.914"/>
    <path stroke="#FFF" stroke-width="2" d="M101.477 46.016c.735-.097 1.513-.565 2.328-.282.002.018-.005.028-.021.033 1.727.688 1.529-1.783 1.192-2.709-.213-.585-.476-1.175-.758-1.75-.357-.727-.743-1.09-1.325-1.629-.539-.5-.758-1.055-1.083-1.663"/>
    <path stroke="#FFF" stroke-width="2" d="M100.06 34.724c.242.55.259 1.141.488 1.708.227.561.606.939.886 1.456.539 1 1.064 1.99 1.709 2.922 1.095 1.58 2.293 3.156 3.625 4.581"/>
    <path stroke="#FFF" stroke-width="2" d="M103.685 40.474c.294 1.008.903 1.899 1.333 2.876.218.495.448 1.034.501 1.583.061.634-.064 1.304.042 1.916"/>
    <path stroke="#FFF" stroke-width="2" d="M102.977 39.307c.265.536.207 1.194.501 1.749.255.48.661.91.947 1.385.653 1.088.69 2.29.927 3.532.091.479.008 1.288.292 1.668"/>
    <path stroke="#FFF" stroke-width="2" d="M93.06 27.599c-.023.029-.021.055-.076.049-.3 1.137.346 2.297 1.044 3.148.668.816 1.388 1.727 2.125 2.459.758.754 1.441 1.576 2.188 2.428.767.875 1.541 1.629 2.521 2.333 1.323.951 2.679 1.791 4.031 2.625"/>
    <path stroke="#FFF" stroke-width="2" d="M104.685 41.807c-.275-.148-.426-.451-.743-.591-.35-.5-.575-.924-1.039-1.378-.357-.349-.982-.722-1.187-1.191-1.048-.388-1.572-1.419-2.333-2.245-.75-.813-1.707-1.337-2.354-2.271-.47-.68-1.323-1.387-1.601-2.149-.023-.005-.046-.009-.069-.014-.131-.453-.599-.94-.83-1.337-.247-.424-.634-.767-.979-1.155-.78-.877-1.761-1.601-2.626-2.407-.349-.324-.752-.693-1.072-1.094"/>
    <path stroke="#FFF" stroke-width="2" d="M87.31 24.099c.879 1.982 3.292 2.729 4.822 4.137 1.598 1.47 2.687 3.369 4.096 5.07.011.002.022.006.034.008.142.384.547.689.79 1.002.242.311 1.628 1.774 2.018 2.107.396.34.795.769 1.19 1.176.715.736 1.582 1.35 2.375 1.967.78.609 1.704 1.4 2.634 1.825m-24.584 7.166c.254-.503 1.086-1.188 1.741-1.073.283.05.686.229.936.355.3.154.505.434.775.6.138.498.573.883.808 1.359.279.565.366 1.09.366 1.759 0 1.374.042 2.716-.301 3.991-.236.882-.74 1.861-1.606 2.351-.458.259-.947.217-1.477.292-.531.076-1.032.116-1.574.116"/>
    <path stroke="#FFF" stroke-width="2" d="M81.727 42.849c.351.035.737 1.015.906 1.303.264.449.521.709.868 1.019.259.231.403.528.532.847.266.656.389 1.352.578 2.031.152.547.467 1.018.531 1.594.071.639.085 1.377.044 2.04-.04.653-.168 1.257-.168 1.959 0 .716-.049 1.323-.213 1.958-.476 1.85-1.592 3.133-2.87 4.496-1.028 1.097-2.165 1.625-3.626 2.004"/>
    <path stroke="#FFF" stroke-width="2" d="M82.894 46.766c.563-.072.983.608 1.25 1.009.347.521.522 1.023.634 1.607.242 1.254.199 2.625.199 3.967 0 1.35-.076 2.548-.408 3.76-.332 1.212-1.134 2.139-2 3.035-.704.728-1.608 1.342-2.487 1.873-.689.417-1.781 1.247-2.647.915"/>
    <path stroke="#FFF" stroke-width="2" d="M82.727 43.432c.556-.078.765 1.308.905 1.669.271.699.509 1.391.706 2.097.042-.005.069-.024.11-.031.154.551.399 1.057.486 1.641.096.644.102 1.272.134 1.95.063 1.295.044 2.699.116 4.05.036.681.065 1.261-.156 1.886-.193.545-.421 1.109-.718 1.615-1.074 1.836-2.947 2.67-4.878 3.418-.838.325-1.711.67-2.571.956-.815.271-1.57.072-2.385.167"/>
    <path stroke="#FFF" stroke-width="2" d="M83.977 54.057c.208-.272.518-.21.824-.157.355.062.42.119.55.493.216.62.198 1.253.045 1.875-.333 1.35-.769 2.497-1.815 3.56-.595.604-1.316 1.087-2.012 1.565-.373.256-1.007.8-1.467.789"/>
    <path stroke="#FFF" stroke-width="2" d="M84.185 49.516c.05 1.21.996 2.191 1.166 3.334.235 1.583.3 3.172-.771 4.509-.458.572-1.028 1.326-1.686 1.657m15.208-8.5c-.395.403-.46 1.144-.593 1.657-.153.591-.326 1.1-.324 1.759.003 1.304-.243 2.757.759 3.665.668.605 1.545.994 2.447 1.086.788.08 1.414-.403 1.919-.959"/>
    <path stroke="#FFF" stroke-width="2" d="M99.144 49.224c-.924.32-2.168 1.221-2.335 2.248-.198 1.213-.238 2.85.171 4.002.433 1.221.888 2.556 1.212 3.826.023.004.046.009.07.014.075.582.836.927 1.34.952.744.037 1.432-.22 2.126-.489.995-.385 1.609-1.248 2.425-1.945.403-.346.771-.686 1.032-1.158.354-.639.208-1.449.208-2.157M73.727 68.432c-.875.573-1.393 1.46-1.292 2.542.047.506.283.938.552 1.365.176.28.439 1.025.732 1.184.255 1.059 1.511 1.576 2.371 2.045.473.259 1.057.461 1.053 1.073-.004.643-.547.996-1.04 1.302-.86.533-1.857.991-2.867 1.146-.578.09-1.386.086-1.969.01-.494-.064-.741-.414-1.167-.583"/>
    <path stroke="#FFF" stroke-width="2" d="M74.727 66.599c-1.109.146-1.827 1.725-1.875 2.75-.059 1.254.474 2.271.99 3.342.482 1.002 1.449 1.606 2.01 2.533.288.476.537 1.206.156 1.74-.374.525-1.312.717-1.906.804-.47.069-.925.081-1.417.081"/>
    <path stroke="#FFF" stroke-width="2" d="M74.56 76.932c.066.014.186.078.285.091.098.434.166.967 0 1.402-1.625 1.397-3.213 2.799-3.787 4.966-.33 1.243-.248 2.718-.248 4.041 0 1.416-.053 2.831.169 4.206.15.927.354 1.897.938 2.681.446.599 1.141 1.219 1.477 1.863"/>
    <path stroke="#FFF" stroke-width="2" d="M70.06 89.182c.58.243.752.803 1.03 1.304.277.499.5.963.792 1.455.294.498.587.926 1.063 1.232.451.291.912.48 1.117 1.008.147.379.35.953.291 1.376"/>
    <path stroke="#FFF" stroke-width="2" d="M70.81 85.932c.203.547.042 1.446.042 2.042 0 .685-.051 1.345-.083 2-.08 1.625.695 2.779 1.751 3.949.261.289.597.65.666 1.051"/>
    <path stroke="#FFF" stroke-width="2" d="M69.977 88.391c.432.105.744.972.866 1.3.21.563.224 1.105.341 1.702.195.997 1.992 2.454.876 3.456m2.375-19.917c.54.163.967.567 1.468.825.55.283.877.435 1.207.959.865 1.38-1.452 1.629-2.424 1.881-.858.221-1.774.467-2.636.764-.553.189-1.137.327-1.658.572-.396.186-.709.479-1.122.624"/>
    <path stroke="#FFF" stroke-width="2" d="M72.519 76.266c.643-.066 1.44.226 2.042.374.493.121 1.379.287 1.761.656.988.955-1.761 1.831-2.322 2.125-1.104.58-2.223 1.318-3.19 2.104-.921.748-1.258 2.034-2.083 2.741m3.903 8.875c.748.183 1.806.534 2.045 1.259.195.589.136 1.24.292 1.834.29 1.102 1.773 1.565 2.8 1.616 1.149.057 2.371.161 3.501.124m-31.166 6.208h.415c1.766 0 3.541.042 5.296.042.768 0 1.506.083 2.29.083.566 0 1.158.169 1.721.097.44-.058.792-.174 1.252-.164 1.273.027 2.545.067 3.818.067 3.203 0 6.433.167 9.625.167 2.144 0 4.287.141 5.708-1.625"/>
    <path stroke="#FFF" stroke-width="2" d="M65.019 105.557c-.659-.171-1.266-.419-1.919-.582-.58-.146-1.208-.176-1.79-.293-.597-.12-1.138-.321-1.706-.501-.626-.199-1.323-.131-2.002-.165-1.304-.066-2.583-.432-3.874-.626-1.433-.216-2.814-.458-4.333-.458-1.234 0-2.438.167-3.668.167m.125-1.292c.584.019 1.155.401 1.749.46.671.066 1.389-.043 2.031.051 1.223.18 2.499.316 3.678.614 2.555.644 5.212.743 7.97.875.909.044 1.7.458 2.574.541.952.091 1.916.196 2.872.304 1.042.115 2.084.131 3.128.238.645.066 1.441.076 2.04.292M37.318 72.287c-.386-.006-.515.499-.531.796-.025.467.166.655.511.895.646.448 1.31.712 2.068.903.45.113.918.038 1.374.112.392.063.743.206 1.116.318.776.234 1.782.105 2.625.105.493 0 .92-.027 1.381-.159.398-.114.795-.249 1.219-.298.474-.055.882-.105 1.327-.266.39-.141.723-.366 1.116-.491.493-.156.998-.284 1.485-.458.401-.144.81-.32 1.212-.477.934-.362 1.993-.539 2.874-1.075.689-.419 1.265-.903 1.702-1.577.211-.326.426-.646.493-1.035.054-.317.006-.686.006-1.009"/>
    <path stroke="#FFF" stroke-width="2" d="M59.073 68.387c.388.49.01 1.138-.084 1.64-.264.217-.406.573-.706.807-.264.206-.529.417-.808.599-.65.424-1.433.567-2.118.855-.81.342-1.652.522-2.526.714-.851.188-1.706.354-2.566.506-.963.17-1.958.146-2.937.188-.663.027-1.334-.002-1.998-.002-.422 0-1.032.113-1.433-.053"/>
    <path stroke="#FFF" stroke-width="2" d="M60.585 68.971c.035.202-.281.654-.404.815-.179.234-.452.457-.672.637-.021.053-.221.125-.323.2-.126.093-.197.226-.348.263-.142.26-.47.435-.694.632-.254.224-.542.407-.869.511-.778.244-1.731.107-2.501.311-.735.193-1.445.467-2.168.723-.84.298-1.551.744-2.422.969-.648.168-1.331.113-2.009.113-.884 0-1.833.029-2.706-.085-1.958-.257-3.781-.872-5.642-1.534-.473-.169-.983-.404-1.473-.503m28.519-2.469c-.045.16-.259.393-.42.455-.056.291-.381.612-.535.846-.197.298-.384.578-.563.895-.387.68-.428 1.488-.551 2.262-.131.818-.497 1.598-.744 2.414-.136.451-.174.957-.217 1.439-.045.514-.119 1.128.205 1.553.363.476.775.848 1.234 1.227"/>
    <path stroke="#FFF" stroke-width="2" d="M65.334 74.197c-.067-.366-.298-.632-.318-1.035-.021-.43.065-.849.126-1.253.062-.406.037-.855.059-1.268.023-.426.04-.821-.26-1.094-.484-.439-1.261-.389-1.909-.359-.81.037-1.54.31-2.341.313m-.557.504c-.292.251-.589.432-.842.75-.208.262-.373.541-.571.809-.38.513-.966.998-1.526 1.285-.351.18-.743.176-1.121.285-.368.107-.732.22-1.111.295-.442.088-.921.016-1.381.078-.542.074-1.109.1-1.673.106-1.102.013-2.202.023-3.309.026-1.175.003-2.337-.186-3.508-.186m31.499-7.667c-.104.397-.443.673-.769.887-.166.109-.36.189-.528.285-.164.092-.309.246-.457.387-.684.648-.686 1.677-.73 2.582-.025.504-.051 1.078.016 1.574.072.535.208 1.029.379 1.535.177.521.308.998.604 1.457.307.474.438.914.438 1.496 0 .381-.135.566-.547.547m22.399-22.939c-.502-.1-.593-.691-.701-1.122-.12-.477-.179-1.126-.098-1.641.078-.492.316-.96.449-1.444.127-.461.255-.96.445-1.406.044-.104.16-.315.179-.319.453-1.122 1.428-1.229 2.461-1.572"/>
    <path stroke="#FFF" stroke-width="2" d="M97.115 51.633c-1.873-.254.179-4.367.878-5.014 1.25-1.155 3.251-1.583 4.803-.772m-5.575 9.257c-.461 1.036-.025 1.772.386 2.733.192.449.296.941.465 1.395.15.402.223.922.657 1.132.694.336 1.873.294 2.552 0 .407-.177.771-.403 1.122-.668.236-.179.743-.691.99-.734"/>
  </g>
</svg>