<?xml version="1.0" encoding="utf-8"?>
<svg xmlns="http://www.w3.org/2000/svg" xml:space="preserve" width="325.969" height="337.681">
  <g fill="none">
    <path stroke="#000" stroke-width="16.82" d="M16.799 26.877h292.206"/>
    <path stroke="#000" stroke-width="20" d="M309.005 26.18H16.799"/>
    <path stroke="#000" stroke-width="13" d="M302.503 35.277c0 7.176-4.468 6.736-4.468 6.736H29.869s-6.573-.01-6.573-5.516"/>
    <path stroke="#000" stroke-width="2" d="M16.799 35.883h3.143"/>
    <path stroke="#000" stroke-width="33" d="M81.398 88.585h163.008M73.25 146.85h177.292"/>
    <path stroke="#000" stroke-width="37.5" d="M130.369 287.935V147.43"/>
    <path stroke="#000" stroke-width="39" d="M196.784 252.779V146.327"/>
    <path stroke="#030202" stroke-width="18.5" d="M254.64 229.67v-85.31"/>
    <path stroke="#000" stroke-width="20.5" d="M72.1 308.586V145.344"/>
    <path stroke="#FFF" stroke-width="37.5" d="m51.695 316.699 230.357-110.877"/>
    <path stroke="#030202" stroke-width="10" d="M66.863 149.594c0-9.071-1.098-14.494 7.027-14.238m-3.092 4.71 2.826 6.401"/>
    <path stroke="#000" stroke-width="5" d="M79.744 176.139s.83-15.538 15.971-15.43m18.419 16.207c0-8.254-7.448-16.086-15.211-16.208m11.14.292 2.775 5.3m-27.219-6.245-5.875 7m66.865 9.501c0-10.7 4.843-16.351 16.044-15.726"/>
    <path stroke="#000" stroke-width="5" d="M180.035 178.875c.481-16.17-9.938-18.183-17.993-18.072m13.147.769c.208.139 6.021 4.291 6.021 4.291m32.319 19.451c.3-12.189 1.046-24.604 18.48-24.548"/>
    <path stroke="#000" stroke-width="5" d="M247.859 182.961c0-11.975.021-25.125-28.585-22.366m42.134-10.851c0-11.87 1.144-17.521-13.549-16.869"/>
    <path stroke="#000" stroke-width="5" d="M261.193 146.129c.412-6.443-1.3-10.852-7.035-11.266m-32.739 24.364-7.198 8.375m29.854-6.525 2.934 4.294"/>
    <path stroke="#000" stroke-width="5" d="M251.411 134.07v10.76l3.695-9.13.707 9.891 2.282-6.63.544 7.168"/>
    <path stroke="#000" stroke-width="3" d="M19.35 36.43H31.4"/>
  </g>
</svg>