<?xml version="1.0" encoding="utf-8"?>
<svg xmlns="http://www.w3.org/2000/svg" xml:space="preserve" width="117.366" height="107.108">
  <g stroke="#000" stroke-width="2">
    <path d="M73.104 20.512c-1.177 1.005-1.833 2.065-2.726 2.661-.401.27-1.233.594-1.426 1.122-.032.089.278.179.436.124 1.545-.54 3.036-1.176 4.552-1.796 1.695-.694 3.455-1.109 5.234-1.526 1.749-.408 3.486-.901 5.291-.974 1.72-.068 3.623.438 5.309.017 1.337-.335 1.879-1.592 2.815-2.466 1.129-1.054 2.491-1.178 3.961-.966 1.326.192 2.638.495 3.688-.555.83-.829 1.259-2.259 2.636-2.248 1.476.012 2.874 1.323 4.365.679.641-.277 1.136-.839 1.691-1.246.688-.504 1.449-.859 2.231-1.189-5.797-.887-11.666-1.985-17.544-2.088-5.199-.091-9.99 1.153-14.156 4.344-1.199.918-2.32 1.935-3.4 2.989-1.165 1.139-2.112 2.501-3.417 3.494m-.238 7.049c1.534-.716 3.245-.941 4.881-1.332 1.706-.407 3.432-.72 5.171-.937 3.801-.474 7.669-.609 11.496-.579 3.219.026 6.812.119 9.506 2.115 2.753 2.04 4.252 5.519 5.452 8.617 1.15 2.975 1.977 6.02 2.517 9.159-1.109-.984-2.236-1.991-3.602-2.607-1.144-.516-2.588-.583-3.597-1.361-1.067-.822-1.179-2.269-1.972-3.287-.948-1.217-2.446-.929-3.806-1.024-1.615-.114-2.243-1.056-2.954-2.386-.728-1.359-1.597-2.123-3.186-2.188-1.623-.067-3.155.115-4.749-.335-1.646-.466-3.155-1.298-4.736-1.932-1.799-.723-3.622-.964-5.55-1.012-.984-.024-1.97-.02-2.953-.08-.527-.032-1.569.1-2.098-.211-.146-.087.09-.642.18-.62m-4.166 5.064c.592-.081 1.258.096 1.837.154.612.063 1.301.048 1.92.11.604.061 1.166.306 1.739.447.538.133 1.114.221 1.646.384 1.177.363 2.326.809 3.475 1.17 1.192.376 2.374.567 3.437 1.287 1.235.837 2.441 1.548 3.319 2.716.133.176.446.283.608.47.195.224.357.477.515.728.35.559.68 1.123 1.061 1.669.67.961 1.334 1.944 2.002 2.919 1.331 1.943 2.668 3.786 3.503 5.943.442 1.145.961 2.205 1.456 3.356.433 1.006.919 2.068 1.354 3.084.327.766.634 1.6.846 2.423.009.034-.438-.102-.49-.145-.178-.149-.317-.326-.426-.534-.171-.328-.35-.543-.562-.656-.415-.223-.683-.439-1.147-.579-.453-.136-.955-.071-1.42-.119-.604-.062-1.292-.002-1.876-.154-1.108-.289-1.068-1.705-1.51-2.55-.58-1.112-1.525-1.255-2.704-1.316-.973-.051-2.627.089-3.034-.987-.196-.52-.22-1.117-.411-1.657-.161-.454-.485-.874-.799-1.269-.614-.772-1.559-1.428-2.519-1.699-.923-.262-2.213-.635-2.597-1.688-.191-.525-.021-1.166-.195-1.688-.16-.476-.391-.778-.625-1.169-.297-.493-.455-1.057-.744-1.553-.456-.78-1.174-1.427-1.6-2.233-.264-.499-.512-.994-.896-1.447-.334-.392-.687-.719-1.023-1.121-.314-.374-.633-.729-.947-1.123-.334-.418-.617-.871-.957-1.307-.33-.422-.771-.727-1.187-1.038-.292-.063-.651-.173-.9-.311-.192-.107-.606-.692-.069-.556m-10.143-9.557c.104-.133.181-.256.232-.481.45-1.961-.828-3.861-1.668-5.544-1.011-2.024-1.378-4.778-.565-6.936.748-1.985 2.094-3.475 3.271-5.181.453-.656 1.242-1.484 2.056-1.641.089 1.322-.287 2.409-.351 3.664-.11 2.172 1.313 4.282 2.095 6.2.933 2.288.463 4.367-1.091 6.254-1.168 1.42-2.673 2.404-3.979 3.665M46.62 25.933c-.453-.58-1.094-1.063-1.652-1.538-.595-.507-1.205-.997-1.81-1.493-1.103-.906-2.239-1.772-3.432-2.556-1.166-.766-2.386-1.451-3.66-2.021-1.264-.565-2.578-1.017-3.923-1.343-1.364-.331-2.756-.534-4.156-.629-1.435-.097-2.876-.08-4.31.02-1.464.102-2.921.289-4.367.535-1.458.247-2.905.554-4.344.896-1.435.341-2.86.717-4.281 1.111-1.412.393-2.819.803-4.226 1.217-.337.099-.674.198-1.01.297.661.27 1.305.559 1.911.938.599.376 1.173.813 1.845 1.055.679.244 1.363.21 2.038-.031.678-.243 1.311-.605 2.036-.696 1.517-.189 2.469.874 3.669 1.568.584.338 1.251.55 1.931.444.679-.105 1.239-.511 1.848-.797.637-.3 1.317-.407 2.004-.219.689.189 1.267.618 1.813 1.063.542.44 1.081.884 1.718 1.183.657.309 1.369.443 2.09.482 1.565.084 3.144-.094 4.707-.16 1.558-.065 3.147-.097 4.704.008 1.509.102 2.991.521 4.463.849.791.176 1.565.406 2.351.601.568.142 1.384.379 1.902-.021.125-.097.255-.234.337-.368.125-.212.008-.307-.196-.395m.247 5.045c-.634-.076-1.072-.235-1.658-.389-1.348-.353-2.798-.232-4.179-.273-1.552-.046-3.102-.13-4.652-.207-3.1-.155-6.206-.277-9.306-.065-1.755.121-3.508.371-5.22.782-2.892.695-5.631 2.023-7.577 4.329-1.94 2.3-2.917 5.233-3.544 8.133-.789 3.646-.67 5.358-1.029 9.066.872-1.241 1.328-.469 2.521-1.427 1.002-.805 2.215-1.2 3.256-1.925.963-.67 1.176-1.666 1.513-2.723.408-1.276 1.13-2.03 2.449-2.36 1.256-.314 2.811-.246 3.785-1.235.848-.86.789-2.16 1.463-3.111.749-1.057 2.234-1.032 3.389-1.201 1.513-.221 2.798-.728 4.014-1.661 1.348-1.034 2.584-2 4.219-2.552 2.127-.718 4.348-1.077 6.538-1.538.564-.119 1.148-.166 1.717-.262.735-.123 1.535-.25 2.21-.583.127-.063.261-.14.372-.229.066-.054.144-.115.155-.206.037-.31-.402-.338-.606-.407M44.99 37.04c-2.973.636-6.159 2.733-8.246 4.861-.741.755-1.597 1.455-2.219 2.297-.712.965-1.322 1.961-2.018 2.938-.776 1.092-1.362 2.347-1.842 3.593-.475 1.233-.606 2.656-1.078 3.893-.507 1.327-1.082 2.154-1.469 3.529-.626 2.225-1.369 2.318-1.717 6.372 1.328-1.101 1.654-1.216 1.998-1.294.687-.156 1.037.054 1.688-.078.683-.138.606-.246 1.133-.722.483-.437.643-1.187.855-1.755.254-.684.337-1.238 1.004-1.656.567-.355 1.216-.495 1.83-.732.58-.224 1.28-.363 1.787-.775.539-.439.722-1.01.973-1.634.567-1.409.919-2.756 2.21-3.614.515-.343 1.129-.592 1.559-1.004.455-.437.718-1.074.929-1.629.938-2.465 1.722-5.015 2.633-7.508.426-1.166 1.065-2.449 2.133-3.238.468-.347 1.048-.645 1.457-1.152.254-.317 1-1.001.864-1.449-.214-.701-1.898-.325-2.354-.133-.671.285-1.396.663-2.11.89m11.52-6.769c-.113-.182-.084-.456.187-.54.335-.104.505-.06.842-.159.356-.105.792-.003 1.155-.085.418-.094 1.218-.25 1.644-.168.913.176.9.906 1.232 1.684.205.479.393.968.551 1.464.105.33.485 1.184.192 1.397-.616.45-1.607.337-2.178.31-.549-.026-1.212.212-1.73.022-.268-.098-.507-.26-.669-.696-.18-.485-.319-.636-.546-1.071-.168-.321-.401-.947-.498-1.294-.094-.337-.21-.852-.213-1.205m3.498 12.091c-.293-.38-.484-.797-.648-1.241-.16-.434-.481-.798-.797-1.114-.082-.082-.382-.397-.351-.525.047-.187.646-.157.813-.175.598-.061 1.227-.035 1.834-.063.634-.03 1.25-.031 1.875-.064.273-.015.552-.002.827-.016.232-.011.545-.089.704.092.348.394.642.972.856 1.453.209.472.355.789.617 1.257.25.449.303 1.137.51 1.608.195.444.371 1.004.371 1.519 0 .498.029.854-.117 1.311-.156.49-.83.37-1.285.37-.529 0-1.06.032-1.576.031-.562-.001-1.036-.041-1.549-.202-.375-.119-.723-.616-.883-.963-.42-.906-.714-1.864-1.075-2.782-.123-.314-.228-.739-.426-1.003m2.581 13.214c-.214-.848-.294-1.563-.742-2.374-.543-.983-.089-1.022.085-1.16.346-.271.864-.303 1.283-.329.622-.039 1.249-.021 1.871 0 .974.031 1.636.26 2.647.287 1.348.037 1.493.905 1.63 2.487.101 1.166.36 2.321.447 3.487.078 1.042.17 2.14-.014 3.176-.136.764.014 1.36-.824 1.368-1 .009-2.572-.446-3.485-.806-.768-.303-1.277-.585-2.122-.776-.977-.222-.627-1.229-.565-3.488.013-.453.028-.918-.083-1.362-.043-.175-.112-.333-.128-.51-.048-.557.014-.28-.079-.43m-1.278 16.495c0-.855.145-1.674.108-2.532-.036-.888-.177-1.81-.179-2.7-.002-1.037.529-1.031 1.262-.729 1.024.423 1.972.971 3.029 1.329 1.189.402 2.006.801 3.256.992 1.083.166 1.351.456.999 2.591-.259 1.574-.52 3.587-.734 5.173-.128.94-.935 4.233-1.446 4.269-1.077.074-2.379-.686-3.474-1.122-1.261-.502-2.022-.89-3.074-1.229-1.737-.562-.72-1.153-.114-4.117.143-.698.264-1.355.331-2.068"/>
    <path fill="#020000" d="M54.641 88.677c.473-.4.537-1.414.698-1.982.275-.978.244-2.004.453-2.992.11-.523.401-2.294.876-2.638.42-.302 1.497.78 1.932.929.865.294.992.392 1.866.661 1.065.327 2.188.91 3.271 1.169.866.205 2.253.422 3.023.893 1.981 1.21.648 2.425.191 4.102-1.075 3.945-2.764 7.746-5.164 11.066-.811 1.121-1.505 3.286-3.095 2.848-.814-.225-1.98-1.369-2.643-1.87-.859-.649-1.692-1.335-2.519-2.026-2.122-1.774-3.702-1.892-2.833-3.229.393-.605.825-1.634 1.182-2.244.534-.913 1.095-1.811 1.636-2.72.487-.822.945-1.425 1.285-2.322.017-.046.352-.789.366-.834"/>
  </g>
</svg>